<mxfile host="app.diagrams.net">
  <diagram id="use_cases" name="VNPy Use Cases">
    <mxGraphModel dx="1200" dy="800" grid="1" gridSize="10" guides="1" tooltips="1" connect="1" arrows="1" fold="1" page="1" pageScale="1" pageWidth="1100" pageHeight="850" background="#ffffff">
      <root>
        <mxCell id="0"/>
        <mxCell id="1" parent="0"/>
        
        <!-- VNPy -->
        <mxCell id="vnpy" value="VNPy" style="actor;fillColor=#99ccff;" vertex="1" parent="1">
          <mxGeometry x="40" y="40" width="80" height="80" as="geometry"/>
        </mxCell>
        
        <!-- Futures Trading -->
        <mxCell id="futures_trading" value="Futures Trading" style="usecase;fillColor=#ffcc99;" vertex="1" parent="1">
          <mxGeometry x="160" y="40" width="120" height="60" as="geometry"/>
        </mxCell>
        
        <mxCell id="conn1" value="" style="endArrow=classic;html=1;" edge="1" parent="1" source="vnpy" target="futures_trading">
          <mxGeometry width="50" height="50" relative="1" as="geometry"/>
        </mxCell>
        
        <!-- Options Trading -->
        <mxCell id="options_trading" value="Options Trading" style="usecase;fillColor=#ffcc99;" vertex="1" parent="1">
          <mxGeometry x="320" y="40" width="120" height="60" as="geometry"/>
        </mxCell>
        
        <mxCell id="conn2" value="" style="endArrow=classic;html=1;" edge="1" parent="1" source="vnpy" target="options_trading">
          <mxGeometry width="50" height="50" relative="1" as="geometry"/>
        </mxCell>
        
        <!-- Spot Trading -->
        <mxCell id="spot_trading" value="Spot Trading" style="usecase;fillColor=#ffcc99;" vertex="1" parent="1">
          <mxGeometry x="480" y="40" width="120" height="60" as="geometry"/>
        </mxCell>
        
        <mxCell id="conn3" value="" style="endArrow=classic;html=1;" edge="1" parent="1" source="vnpy" target="spot_trading">
          <mxGeometry width="50" height="50" relative="1" as="geometry"/>
        </mxCell>
        
        <!-- Algorithmic Trading -->
        <mxCell id="algorithmic_trading" value="Algorithmic Trading" style="usecase;fillColor=#ffcc99;" vertex="1" parent="1">
          <mxGeometry x="640" y="40" width="120" height="60" as="geometry"/>
        </mxCell>
        
        <mxCell id="conn4" value="" style="endArrow=classic;html=1;" edge="1" parent="1" source="vnpy" target="algorithmic_trading">
          <mxGeometry width="50" height="50" relative="1" as="geometry"/>
        </mxCell>
        
        <!-- Multi-market Trading -->
        <mxCell id="multi_market" value="Multi-market Trading" style="usecase;fillColor=#ffcc99;" vertex="1" parent="1">
          <mxGeometry x="800" y="40" width="140" height="60" as="geometry"/>
        </mxCell>
        
        <mxCell id="conn5" value="" style="endArrow=classic;html=1;" edge="1" parent="1" source="vnpy" target="multi_market">
          <mxGeometry width="50" height="50" relative="1" as="geometry"/>
        </mxCell>
        
        <!-- Backtesting -->
        <mxCell id="backtesting" value="Backtesting" style="usecase;fillColor=#ffcc99;" vertex="1" parent="1">
          <mxGeometry x="160" y="140" width="120" height="60" as="geometry"/>
        </mxCell>
        
        <mxCell id="conn6" value="" style="endArrow=classic;html=1;" edge="1" parent="1" source="vnpy" target="backtesting">
          <mxGeometry width="50" height="50" relative="1" as="geometry"/>
        </mxCell>
        
        <!-- Risk Management -->
        <mxCell id="risk_management" value="Risk Management" style="usecase;fillColor=#ffcc99;" vertex="1" parent="1">
          <mxGeometry x="320" y="140" width="120" height="60" as="geometry"/>
        </mxCell>
        
        <mxCell id="conn7" value="" style="endArrow=classic;html=1;" edge="1" parent="1" source="vnpy" target="risk_management">
          <mxGeometry width="50" height="50" relative="1" as="geometry"/>
        </mxCell>
        
        <!-- Data Analysis -->
        <mxCell id="data_analysis" value="Data Analysis" style="usecase;fillColor=#ffcc99;" vertex="1" parent="1">
          <mxGeometry x="480" y="140" width="120" height="60" as="geometry"/>
        </mxCell>
        
        <mxCell id="conn8" value="" style="endArrow=classic;html=1;" edge="1" parent="1" source="vnpy" target="data_analysis">
          <mxGeometry width="50" height="50" relative="1" as="geometry"/>
        </mxCell>
        
      </root>
    </mxGraphModel>
  </diagram>
</mxfile>
